<mxfile host="Electron" modified="2024-05-17T16:08:19.104Z" agent="Mozilla/5.0 (Windows NT 10.0; Win64; x64) AppleWebKit/537.36 (KHTML, like Gecko) draw.io/24.4.0 Chrome/120.0.6099.109 Electron/28.1.0 Safari/537.36" etag="p5zR05ydkCmq8iFqzyKK" version="24.4.0" type="device">
  <diagram name="Page-1" id="2YBvvXClWsGukQMizWep">
    <mxGraphModel dx="1124" dy="434" grid="0" gridSize="10" guides="1" tooltips="1" connect="1" arrows="1" fold="1" page="0" pageScale="1" pageWidth="850" pageHeight="1100" math="0" shadow="0">
      <root>
        <mxCell id="0" />
        <mxCell id="1" parent="0" />
        <mxCell id="sfjG-DWCoehXRHjB1xbL-2" value="" style="shape=umlLifeline;perimeter=lifelinePerimeter;whiteSpace=wrap;html=1;container=1;dropTarget=0;collapsible=0;recursiveResize=0;outlineConnect=0;portConstraint=eastwest;newEdgeStyle={&quot;curved&quot;:0,&quot;rounded&quot;:0};participant=umlActor;" parent="1" vertex="1">
          <mxGeometry x="-33" y="51" width="20" height="300" as="geometry" />
        </mxCell>
        <mxCell id="sfjG-DWCoehXRHjB1xbL-3" value="Ui Home" style="html=1;whiteSpace=wrap;" parent="1" vertex="1">
          <mxGeometry x="69" y="45" width="110" height="50" as="geometry" />
        </mxCell>
        <mxCell id="sfjG-DWCoehXRHjB1xbL-4" value="Ui Upgrade" style="html=1;whiteSpace=wrap;" parent="1" vertex="1">
          <mxGeometry x="213" y="45" width="110" height="50" as="geometry" />
        </mxCell>
        <mxCell id="sfjG-DWCoehXRHjB1xbL-5" value="Data Towers" style="html=1;whiteSpace=wrap;" parent="1" vertex="1">
          <mxGeometry x="374" y="47" width="110" height="50" as="geometry" />
        </mxCell>
        <mxCell id="sfjG-DWCoehXRHjB1xbL-6" value="Data Player" style="html=1;whiteSpace=wrap;" parent="1" vertex="1">
          <mxGeometry x="519" y="47" width="110" height="50" as="geometry" />
        </mxCell>
        <mxCell id="COekbV6cKCHazgMAHIfr-1" value="A" style="swimlane;fontStyle=1;align=center;verticalAlign=top;childLayout=stackLayout;horizontal=1;startSize=26;horizontalStack=0;resizeParent=1;resizeParentMax=0;resizeLast=0;collapsible=1;marginBottom=0;whiteSpace=wrap;html=1;" vertex="1" parent="1">
          <mxGeometry x="211" y="355" width="52" height="34" as="geometry" />
        </mxCell>
        <mxCell id="COekbV6cKCHazgMAHIfr-3" value="" style="line;strokeWidth=1;fillColor=none;align=left;verticalAlign=middle;spacingTop=-1;spacingLeft=3;spacingRight=3;rotatable=0;labelPosition=right;points=[];portConstraint=eastwest;strokeColor=inherit;" vertex="1" parent="COekbV6cKCHazgMAHIfr-1">
          <mxGeometry y="26" width="52" height="8" as="geometry" />
        </mxCell>
        <mxCell id="COekbV6cKCHazgMAHIfr-8" value="B" style="swimlane;fontStyle=1;align=center;verticalAlign=top;childLayout=stackLayout;horizontal=1;startSize=26;horizontalStack=0;resizeParent=1;resizeParentMax=0;resizeLast=0;collapsible=1;marginBottom=0;whiteSpace=wrap;html=1;" vertex="1" parent="1">
          <mxGeometry x="335" y="351" width="52" height="34" as="geometry" />
        </mxCell>
        <mxCell id="COekbV6cKCHazgMAHIfr-9" value="" style="line;strokeWidth=1;fillColor=none;align=left;verticalAlign=middle;spacingTop=-1;spacingLeft=3;spacingRight=3;rotatable=0;labelPosition=right;points=[];portConstraint=eastwest;strokeColor=inherit;" vertex="1" parent="COekbV6cKCHazgMAHIfr-8">
          <mxGeometry y="26" width="52" height="8" as="geometry" />
        </mxCell>
        <mxCell id="COekbV6cKCHazgMAHIfr-10" value="SinhVien" style="swimlane;fontStyle=1;align=center;verticalAlign=top;childLayout=stackLayout;horizontal=1;startSize=26;horizontalStack=0;resizeParent=1;resizeParentMax=0;resizeLast=0;collapsible=1;marginBottom=0;whiteSpace=wrap;html=1;" vertex="1" parent="1">
          <mxGeometry x="240" y="244" width="160" height="78" as="geometry" />
        </mxCell>
        <mxCell id="COekbV6cKCHazgMAHIfr-11" value="- name: string&lt;div&gt;- khoa:&amp;nbsp;&lt;b&gt;Khoa&lt;/b&gt;[]&lt;br&gt;&lt;/div&gt;" style="text;strokeColor=none;fillColor=none;align=left;verticalAlign=top;spacingLeft=4;spacingRight=4;overflow=hidden;rotatable=0;points=[[0,0.5],[1,0.5]];portConstraint=eastwest;whiteSpace=wrap;html=1;" vertex="1" parent="COekbV6cKCHazgMAHIfr-10">
          <mxGeometry y="26" width="160" height="44" as="geometry" />
        </mxCell>
        <mxCell id="COekbV6cKCHazgMAHIfr-12" value="" style="line;strokeWidth=1;fillColor=none;align=left;verticalAlign=middle;spacingTop=-1;spacingLeft=3;spacingRight=3;rotatable=0;labelPosition=right;points=[];portConstraint=eastwest;strokeColor=inherit;" vertex="1" parent="COekbV6cKCHazgMAHIfr-10">
          <mxGeometry y="70" width="160" height="8" as="geometry" />
        </mxCell>
        <mxCell id="COekbV6cKCHazgMAHIfr-14" value="Khoa" style="swimlane;fontStyle=1;align=center;verticalAlign=top;childLayout=stackLayout;horizontal=1;startSize=26;horizontalStack=0;resizeParent=1;resizeParentMax=0;resizeLast=0;collapsible=1;marginBottom=0;whiteSpace=wrap;html=1;" vertex="1" parent="1">
          <mxGeometry x="562" y="239" width="160" height="76" as="geometry" />
        </mxCell>
        <mxCell id="COekbV6cKCHazgMAHIfr-15" value="- name: string&lt;div&gt;- sv: &lt;b&gt;SinhVien&lt;/b&gt;[]&lt;/div&gt;" style="text;strokeColor=none;fillColor=none;align=left;verticalAlign=top;spacingLeft=4;spacingRight=4;overflow=hidden;rotatable=0;points=[[0,0.5],[1,0.5]];portConstraint=eastwest;whiteSpace=wrap;html=1;" vertex="1" parent="COekbV6cKCHazgMAHIfr-14">
          <mxGeometry y="26" width="160" height="42" as="geometry" />
        </mxCell>
        <mxCell id="COekbV6cKCHazgMAHIfr-16" value="" style="line;strokeWidth=1;fillColor=none;align=left;verticalAlign=middle;spacingTop=-1;spacingLeft=3;spacingRight=3;rotatable=0;labelPosition=right;points=[];portConstraint=eastwest;strokeColor=inherit;" vertex="1" parent="COekbV6cKCHazgMAHIfr-14">
          <mxGeometry y="68" width="160" height="8" as="geometry" />
        </mxCell>
        <mxCell id="COekbV6cKCHazgMAHIfr-19" value="" style="endArrow=none;html=1;edgeStyle=orthogonalEdgeStyle;rounded=0;entryX=0;entryY=0.5;entryDx=0;entryDy=0;exitX=1.009;exitY=0.379;exitDx=0;exitDy=0;exitPerimeter=0;" edge="1" parent="1" source="COekbV6cKCHazgMAHIfr-11" target="COekbV6cKCHazgMAHIfr-15">
          <mxGeometry relative="1" as="geometry">
            <mxPoint x="337" y="324" as="sourcePoint" />
            <mxPoint x="497" y="324" as="targetPoint" />
          </mxGeometry>
        </mxCell>
        <mxCell id="COekbV6cKCHazgMAHIfr-20" value="50 .. *" style="edgeLabel;resizable=0;html=1;align=left;verticalAlign=bottom;" connectable="0" vertex="1" parent="COekbV6cKCHazgMAHIfr-19">
          <mxGeometry x="-1" relative="1" as="geometry">
            <mxPoint x="5" as="offset" />
          </mxGeometry>
        </mxCell>
        <mxCell id="COekbV6cKCHazgMAHIfr-21" value="1..2" style="edgeLabel;resizable=0;html=1;align=right;verticalAlign=bottom;" connectable="0" vertex="1" parent="COekbV6cKCHazgMAHIfr-19">
          <mxGeometry x="1" relative="1" as="geometry">
            <mxPoint x="-8" as="offset" />
          </mxGeometry>
        </mxCell>
      </root>
    </mxGraphModel>
  </diagram>
</mxfile>
